# xmcd CD database file
#
# Track frame offsets:
#	150
#	18672
#	34136
#	53596
#	73601
#	98862
#	113358
#	132855
#	153303
#	165432
#	188528
#	207467
#	223869
#	238997
#	260079
#
# Disc length: 3727 seconds
#
# Revision: 0
# Processed by: cddbd v1.5.1PL0 Copyright (c) Steve Scherf et al.
# Submitted via: CDex 1.51
#
DISCID=d10e8d0f
DTITLE=animacion - Animacion
DYEAR=2005
DGENRE=Merengue
TTITLE0=dale a lla
TTITLE1=1,2,3
TTITLE2=azul
TTITLE3=mueve la colita
TTITLE4=mamajuana
TTITLE5=kulikitaka
TTITLE6=la vaca
TTITLE7=obsecion
TTITLE8=gemidos de amor
TTITLE9=ay ombe
TTITLE10=nada de nada
TTITLE11=aserere
TTITLE12=la malanga
TTITLE13=la vida es un carnaval
TTITLE14=la vida es una bachata
EXTD=YEAR: 2005
EXTT0=
EXTT1=
EXTT2=
EXTT3=
EXTT4=
EXTT5=
EXTT6=
EXTT7=
EXTT8=
EXTT9=
EXTT10=
EXTT11=
EXTT12=
EXTT13=
EXTT14=
PLAYORDER=
